<svg xmlns="http://www.w3.org/2000/svg" xmlns:xlink="http://www.w3.org/1999/xlink"><symbol id="icon-cart"><path d="M11.864 3.017a.429.429 0 0 0-.327-.154H9.225V4.09c0 .563-.484 1.022-1.08 1.022-.594 0-1.078-.458-1.078-1.022V2.863H4.909V4.09c0 .563-.485 1.022-1.08 1.022-.595 0-1.078-.458-1.078-1.022V2.863H.438a.43.43 0 0 0-.327.154.472.472 0 0 0-.108.358l.776 7.134c.015.806.642 1.455 1.411 1.455h7.595c.77 0 1.396-.649 1.411-1.455l.776-7.134a.476.476 0 0 0-.108-.358z"/><path d="M3.829 4.499c.239 0 .433-.184.433-.409V1.84c0-.632.672-1.022 1.295-1.022h1.079c.655 0 1.078.401 1.078 1.022v2.25c0 .225.194.409.431.409.239 0 .433-.184.433-.409V1.84C8.577.773 7.761 0 6.636 0H5.557c-1.19 0-2.159.826-2.159 1.84v2.25c0 .225.194.409.431.409z"/></symbol><symbol id="icon-compare"><path d="M8 2h1.984v8H8zM0 3h1.984v7H0zm4-3h2v10H4z"/></symbol><symbol id="icon-logo-html"><path d="M13.62.017L13.472 0 0 1.412v24.661l13.473 8.017 13.43-7.99.042-.025V1.412L13.62.017zm11.399 12.11L13.495 5.334l-.001-.104-.087.05-.088-.056v.109L1.925 12.118V3.147l11.548-1.212L25.02 3.147v8.98zm-11.614-5.34L24.923 13.5l-4.479 2.64-7.093-4.221-.014 1.415 5.904 3.513-.86.507-5.03-2.992-.014 1.415 3.827 2.275-.782.523-3.031-1.787-.014 1.413 1.853 1.091-1.8 1.081-11.356-6.751 11.371-6.835zm-11.48 8.34l11.411 6.791.016 1.044-7.942-4.728-.015 1.416 7.979 4.795.018 1.076-7.973-4.74-.013 1.414 8.021 4.822.046.025 8.143-4.872-.011-5.177 3.415-2.036v10.021L13.472 31.85 1.925 24.979v-9.852z"/></symbol><symbol id="icon-user"><path d="M.032 12h12.937c-.163-2.643-2.074-4.837-4.671-5.543a3.47 3.47 0 0 0 1.687-2.972 3.485 3.485 0 0 0-6.97 0c0 1.264.68 2.361 1.688 2.972C2.106 7.163.194 9.357.032 12z"/></symbol></svg>